<?xml version="1.0" encoding="UTF-8" standalone="no"?>
<svg viewBox="-12.2 -12 26.4 24" xmlns="http://www.w3.org/2000/svg">
<line x1="-3.090170" y1="-9.510565" x2="0.000000" y2="-10.000000" fill="none" fill-opacity="0" stroke-width="0.100000" stroke="black"/>
<line x1="-5.877853" y1="-8.090170" x2="-3.090170" y2="-9.510565" fill="none" fill-opacity="0" stroke-width="0.100000" stroke="black"/>
<line x1="-8.090170" y1="-5.877853" x2="-5.877853" y2="-8.090170" fill="none" fill-opacity="0" stroke-width="0.100000" stroke="black"/>
<line x1="-9.510565" y1="-3.090170" x2="-8.090170" y2="-5.877853" fill="none" fill-opacity="0" stroke-width="0.100000" stroke="black"/>
<line x1="-10.000000" y1="-0.000000" x2="-9.510565" y2="-3.090170" fill="none" fill-opacity="0" stroke-width="0.100000" stroke="black"/>
<line x1="-9.510565" y1="3.090170" x2="-10.000000" y2="-0.000000" fill="none" fill-opacity="0" stroke-width="0.100000" stroke="black"/>
<line x1="-8.090170" y1="5.877853" x2="-9.510565" y2="3.090170" fill="none" fill-opacity="0" stroke-width="0.100000" stroke="black"/>
<line x1="-5.877853" y1="8.090170" x2="-8.090170" y2="5.877853" fill="none" fill-opacity="0" stroke-width="0.100000" stroke="black"/>
<line x1="-3.090170" y1="9.510565" x2="-5.877853" y2="8.090170" fill="none" fill-opacity="0" stroke-width="0.100000" stroke="black"/>
<line x1="-0.000000" y1="10.000000" x2="-3.090170" y2="9.510565" fill="none" fill-opacity="0" stroke-width="0.100000" stroke="black"/>
<polyline points="-2.938926,-9.045085 -4.332768,-8.334887 -5.438926,-7.228729 -3.893841,-7.473446 -2.500000,-8.183644 -1.393841,-9.289802 -2.938926,-9.045085" fill="#FF7777" stroke-width="0.100000" stroke="none"/>
<text x="10.500000" y="-9.400000" fill="black" font-size="0.500000pt" text-anchor="middle" dominant-baseline="middle">2-3-1</text><polyline points="-3.850876,-5.532400 -4.095594,-3.987315 -3.850876,-2.442230 -2.457035,-3.152428 -2.212317,-4.697513 -2.457035,-6.242598 -3.850876,-5.532400" fill="#FF7777" stroke-width="0.100000" stroke="none"/>
<text x="10.500000" y="-8.800000" fill="black" font-size="0.500000pt" text-anchor="middle" dominant-baseline="middle">5-6-2</text><polyline points="-1.257402,-1.758586 -0.547205,-0.364745 0.846637,0.345453 1.091354,-1.199632 0.381156,-2.593474 -1.012685,-3.303671 -1.257402,-1.758586" fill="#FF7777" stroke-width="0.100000" stroke="none"/>
<text x="10.500000" y="-8.200000" fill="black" font-size="0.500000pt" text-anchor="middle" dominant-baseline="middle">7-9-5</text><polyline points="0.287683,-8.183644 -0.818476,-7.077485 -0.573759,-5.532400 0.820083,-4.822202 1.926241,-5.928361 1.681524,-7.473446 0.287683,-8.183644" fill="#FF7777" stroke-width="0.100000" stroke="none"/>
<text x="10.500000" y="-7.600000" fill="black" font-size="0.500000pt" text-anchor="middle" dominant-baseline="middle">3-6-9</text><polyline points="-3.730848,3.555650 -5.275933,3.800368 -5.986131,5.194209 -4.592290,5.904406 -3.047205,5.659689 -2.337007,4.265848 -3.730848,3.555650" fill="#FF7777" stroke-width="0.100000" stroke="none"/>
<text x="10.500000" y="-7.000000" fill="black" font-size="0.500000pt" text-anchor="middle" dominant-baseline="middle">1-4-9</text><polyline points="2.787683,5.388418 3.893841,6.494576 5.438926,6.739294 6.545085,5.633135 5.438926,4.526976 3.893841,4.282259 2.787683,5.388418" fill="#FF7777" stroke-width="0.100000" stroke="none"/>
<text x="10.500000" y="-6.400000" fill="black" font-size="0.500000pt" text-anchor="middle" dominant-baseline="middle">8-10-3</text><polyline points="5.042965,2.026976 4.332768,3.420818 5.438926,4.526976 6.984011,4.771694 7.694209,3.377853 6.588050,2.271694 5.042965,2.026976" fill="#FF7777" stroke-width="0.100000" stroke="none"/>
<text x="10.500000" y="-5.800000" fill="black" font-size="0.500000pt" text-anchor="middle" dominant-baseline="middle">4-8-10</text><polyline points="7.228729,-5.438926 7.473446,-3.893841 8.183644,-2.500000 9.289802,-1.393841 9.045085,-2.938926 8.334887,-4.332768 7.228729,-5.438926" fill="#FF7777" stroke-width="0.100000" stroke="none"/>
<text x="10.500000" y="-5.200000" fill="black" font-size="0.500000pt" text-anchor="middle" dominant-baseline="middle">6-7-8</text><line x1="-4.332768" y1="-8.334887" x2="-1.545085" y2="-9.755283" fill="none" fill-opacity="0" stroke-width="0.030000" stroke="blue"/>
<line x1="-4.484011" y1="-8.800368" x2="-1.393841" y2="-9.289802" fill="none" fill-opacity="0" stroke-width="0.030000" stroke="blue"/>
<line x1="-5.877853" y1="-8.090170" x2="-2.787683" y2="-8.579605" fill="none" fill-opacity="0" stroke-width="0.100000" stroke="black"/>
<line x1="-2.787683" y1="-8.579605" x2="0.000000" y2="-10.000000" fill="none" fill-opacity="0" stroke-width="0.100000" stroke="black"/>
<line x1="-6.545085" y1="-6.122570" x2="-4.332768" y2="-8.334887" fill="none" fill-opacity="0" stroke-width="0.030000" stroke="blue"/>
<line x1="-6.984011" y1="-6.984011" x2="-3.893841" y2="-7.473446" fill="none" fill-opacity="0" stroke-width="0.030000" stroke="blue"/>
<line x1="-8.090170" y1="-5.877853" x2="-5.000000" y2="-6.367287" fill="none" fill-opacity="0" stroke-width="0.100000" stroke="black"/>
<line x1="-5.000000" y1="-6.367287" x2="-2.787683" y2="-8.579605" fill="none" fill-opacity="0" stroke-width="0.100000" stroke="black"/>
<line x1="-3.606159" y1="-7.077485" x2="-1.393841" y2="-9.289802" fill="none" fill-opacity="0" stroke-width="0.030000" stroke="blue"/>
<line x1="-3.893841" y1="-7.473446" x2="-1.106159" y2="-8.893841" fill="none" fill-opacity="0" stroke-width="0.030000" stroke="blue"/>
<line x1="-5.000000" y1="-6.367287" x2="-2.212317" y2="-7.787683" fill="none" fill-opacity="0" stroke-width="0.100000" stroke="black"/>
<line x1="-2.212317" y1="-7.787683" x2="0.000000" y2="-10.000000" fill="none" fill-opacity="0" stroke-width="0.100000" stroke="black"/>
<line x1="-9.289802" y1="-1.393841" x2="-8.800368" y2="-4.484011" fill="none" fill-opacity="0" stroke-width="0.030000" stroke="blue"/>
<line x1="-9.755283" y1="-1.545085" x2="-8.334887" y2="-4.332768" fill="none" fill-opacity="0" stroke-width="0.030000" stroke="blue"/>
<line x1="-10.000000" y1="-0.000000" x2="-8.579605" y2="-2.787683" fill="none" fill-opacity="0" stroke-width="0.100000" stroke="black"/>
<line x1="-8.579605" y1="-2.787683" x2="-8.090170" y2="-5.877853" fill="none" fill-opacity="0" stroke-width="0.100000" stroke="black"/>
<line x1="-7.034520" y1="-3.032400" x2="-6.545085" y2="-6.122570" fill="none" fill-opacity="0" stroke-width="0.030000" stroke="blue"/>
<line x1="-8.334887" y1="-4.332768" x2="-5.244717" y2="-4.822202" fill="none" fill-opacity="0" stroke-width="0.030000" stroke="blue"/>
<line x1="-8.579605" y1="-2.787683" x2="-5.489435" y2="-3.277117" fill="none" fill-opacity="0" stroke-width="0.100000" stroke="black"/>
<line x1="-5.489435" y1="-3.277117" x2="-5.000000" y2="-6.367287" fill="none" fill-opacity="0" stroke-width="0.100000" stroke="black"/>
<line x1="-4.095594" y1="-3.987315" x2="-3.606159" y2="-7.077485" fill="none" fill-opacity="0" stroke-width="0.030000" stroke="blue"/>
<line x1="-5.244717" y1="-4.822202" x2="-2.457035" y2="-6.242598" fill="none" fill-opacity="0" stroke-width="0.030000" stroke="blue"/>
<line x1="-5.489435" y1="-3.277117" x2="-2.701752" y2="-4.697513" fill="none" fill-opacity="0" stroke-width="0.100000" stroke="black"/>
<line x1="-2.701752" y1="-4.697513" x2="-2.212317" y2="-7.787683" fill="none" fill-opacity="0" stroke-width="0.100000" stroke="black"/>
<line x1="-8.800368" y1="1.696329" x2="-9.289802" y2="-1.393841" fill="none" fill-opacity="0" stroke-width="0.030000" stroke="blue"/>
<line x1="-9.755283" y1="1.545085" x2="-8.334887" y2="-1.242598" fill="none" fill-opacity="0" stroke-width="0.030000" stroke="blue"/>
<line x1="-9.510565" y1="3.090170" x2="-8.090170" y2="0.302487" fill="none" fill-opacity="0" stroke-width="0.100000" stroke="black"/>
<line x1="-8.090170" y1="0.302487" x2="-8.579605" y2="-2.787683" fill="none" fill-opacity="0" stroke-width="0.100000" stroke="black"/>
<line x1="-6.545085" y1="0.057770" x2="-7.034520" y2="-3.032400" fill="none" fill-opacity="0" stroke-width="0.030000" stroke="blue"/>
<line x1="-8.334887" y1="-1.242598" x2="-5.244717" y2="-1.732032" fill="none" fill-opacity="0" stroke-width="0.030000" stroke="blue"/>
<line x1="-8.090170" y1="0.302487" x2="-5.000000" y2="-0.186947" fill="none" fill-opacity="0" stroke-width="0.100000" stroke="black"/>
<line x1="-5.000000" y1="-0.186947" x2="-5.489435" y2="-3.277117" fill="none" fill-opacity="0" stroke-width="0.100000" stroke="black"/>
<line x1="-3.606159" y1="-0.897145" x2="-4.095594" y2="-3.987315" fill="none" fill-opacity="0" stroke-width="0.030000" stroke="blue"/>
<line x1="-5.244717" y1="-1.732032" x2="-2.457035" y2="-3.152428" fill="none" fill-opacity="0" stroke-width="0.030000" stroke="blue"/>
<line x1="-5.000000" y1="-0.186947" x2="-2.212317" y2="-1.607343" fill="none" fill-opacity="0" stroke-width="0.100000" stroke="black"/>
<line x1="-2.212317" y1="-1.607343" x2="-2.701752" y2="-4.697513" fill="none" fill-opacity="0" stroke-width="0.100000" stroke="black"/>
<line x1="-1.967600" y1="-3.152428" x2="-2.457035" y2="-6.242598" fill="none" fill-opacity="0" stroke-width="0.030000" stroke="blue"/>
<line x1="-2.457035" y1="-3.152428" x2="-1.967600" y2="-6.242598" fill="none" fill-opacity="0" stroke-width="0.030000" stroke="blue"/>
<line x1="-2.212317" y1="-1.607343" x2="-1.722883" y2="-4.697513" fill="none" fill-opacity="0" stroke-width="0.100000" stroke="black"/>
<line x1="-1.722883" y1="-4.697513" x2="-2.212317" y2="-7.787683" fill="none" fill-opacity="0" stroke-width="0.100000" stroke="black"/>
<line x1="-7.379972" y1="4.484011" x2="-8.800368" y2="1.696329" fill="none" fill-opacity="0" stroke-width="0.030000" stroke="blue"/>
<line x1="-8.800368" y1="4.484011" x2="-7.379972" y2="1.696329" fill="none" fill-opacity="0" stroke-width="0.030000" stroke="blue"/>
<line x1="-8.090170" y1="5.877853" x2="-6.669775" y2="3.090170" fill="none" fill-opacity="0" stroke-width="0.100000" stroke="black"/>
<line x1="-6.669775" y1="3.090170" x2="-8.090170" y2="0.302487" fill="none" fill-opacity="0" stroke-width="0.100000" stroke="black"/>
<line x1="-5.124690" y1="2.845453" x2="-6.545085" y2="0.057770" fill="none" fill-opacity="0" stroke-width="0.030000" stroke="blue"/>
<line x1="-7.379972" y1="1.696329" x2="-4.289802" y2="1.206894" fill="none" fill-opacity="0" stroke-width="0.030000" stroke="blue"/>
<line x1="-6.669775" y1="3.090170" x2="-3.579605" y2="2.600735" fill="none" fill-opacity="0" stroke-width="0.100000" stroke="black"/>
<line x1="-3.579605" y1="2.600735" x2="-5.000000" y2="-0.186947" fill="none" fill-opacity="0" stroke-width="0.100000" stroke="black"/>
<line x1="-2.185763" y1="1.890537" x2="-3.606159" y2="-0.897145" fill="none" fill-opacity="0" stroke-width="0.030000" stroke="blue"/>
<line x1="-4.289802" y1="1.206894" x2="-1.502120" y2="-0.213501" fill="none" fill-opacity="0" stroke-width="0.030000" stroke="blue"/>
<line x1="-3.579605" y1="2.600735" x2="-0.791922" y2="1.180340" fill="none" fill-opacity="0" stroke-width="0.100000" stroke="black"/>
<line x1="-0.791922" y1="1.180340" x2="-2.212317" y2="-1.607343" fill="none" fill-opacity="0" stroke-width="0.100000" stroke="black"/>
<line x1="-0.547205" y1="-0.364745" x2="-1.967600" y2="-3.152428" fill="none" fill-opacity="0" stroke-width="0.030000" stroke="blue"/>
<line x1="-1.502120" y1="-0.213501" x2="-1.012685" y2="-3.303671" fill="none" fill-opacity="0" stroke-width="0.030000" stroke="blue"/>
<line x1="-0.791922" y1="1.180340" x2="-0.302487" y2="-1.909830" fill="none" fill-opacity="0" stroke-width="0.100000" stroke="black"/>
<line x1="-0.302487" y1="-1.909830" x2="-1.722883" y2="-4.697513" fill="none" fill-opacity="0" stroke-width="0.100000" stroke="black"/>
<line x1="-4.196329" y1="8.404406" x2="-6.984011" y2="6.984011" fill="none" fill-opacity="0" stroke-width="0.030000" stroke="blue"/>
<line x1="-4.484011" y1="8.800368" x2="-6.696329" y2="6.588050" fill="none" fill-opacity="0" stroke-width="0.030000" stroke="blue"/>
<line x1="-3.090170" y1="9.510565" x2="-5.302487" y2="7.298248" fill="none" fill-opacity="0" stroke-width="0.100000" stroke="black"/>
<line x1="-5.302487" y1="7.298248" x2="-8.090170" y2="5.877853" fill="none" fill-opacity="0" stroke-width="0.100000" stroke="black"/>
<line x1="-4.592290" y1="5.904406" x2="-7.379972" y2="4.484011" fill="none" fill-opacity="0" stroke-width="0.030000" stroke="blue"/>
<line x1="-6.696329" y1="6.588050" x2="-5.275933" y2="3.800368" fill="none" fill-opacity="0" stroke-width="0.030000" stroke="blue"/>
<line x1="-5.302487" y1="7.298248" x2="-3.882092" y2="4.510565" fill="none" fill-opacity="0" stroke-width="0.100000" stroke="black"/>
<line x1="-3.882092" y1="4.510565" x2="-6.669775" y2="3.090170" fill="none" fill-opacity="0" stroke-width="0.100000" stroke="black"/>
<line x1="-2.337007" y1="4.265848" x2="-5.124690" y2="2.845453" fill="none" fill-opacity="0" stroke-width="0.030000" stroke="blue"/>
<line x1="-5.275933" y1="3.800368" x2="-2.185763" y2="3.310933" fill="none" fill-opacity="0" stroke-width="0.030000" stroke="blue"/>
<line x1="-3.882092" y1="4.510565" x2="-0.791922" y2="4.021130" fill="none" fill-opacity="0" stroke-width="0.100000" stroke="black"/>
<line x1="-0.791922" y1="4.021130" x2="-3.579605" y2="2.600735" fill="none" fill-opacity="0" stroke-width="0.100000" stroke="black"/>
<line x1="0.601919" y1="3.310933" x2="-2.185763" y2="1.890537" fill="none" fill-opacity="0" stroke-width="0.030000" stroke="blue"/>
<line x1="-2.185763" y1="3.310933" x2="0.601919" y2="1.890537" fill="none" fill-opacity="0" stroke-width="0.030000" stroke="blue"/>
<line x1="-0.791922" y1="4.021130" x2="1.995760" y2="2.600735" fill="none" fill-opacity="0" stroke-width="0.100000" stroke="black"/>
<line x1="1.995760" y1="2.600735" x2="-0.791922" y2="1.180340" fill="none" fill-opacity="0" stroke-width="0.100000" stroke="black"/>
<line x1="2.240478" y1="1.055650" x2="-0.547205" y2="-0.364745" fill="none" fill-opacity="0" stroke-width="0.030000" stroke="blue"/>
<line x1="0.601919" y1="1.890537" x2="1.091354" y2="-1.199632" fill="none" fill-opacity="0" stroke-width="0.030000" stroke="blue"/>
<line x1="1.995760" y1="2.600735" x2="2.485195" y2="-0.489435" fill="none" fill-opacity="0" stroke-width="0.100000" stroke="black"/>
<line x1="2.485195" y1="-0.489435" x2="-0.302487" y2="-1.909830" fill="none" fill-opacity="0" stroke-width="0.100000" stroke="black"/>
<line x1="1.774998" y1="-1.883276" x2="-1.012685" y2="-3.303671" fill="none" fill-opacity="0" stroke-width="0.030000" stroke="blue"/>
<line x1="1.091354" y1="-1.199632" x2="-0.329041" y2="-3.987315" fill="none" fill-opacity="0" stroke-width="0.030000" stroke="blue"/>
<line x1="2.485195" y1="-0.489435" x2="1.064800" y2="-3.277117" fill="none" fill-opacity="0" stroke-width="0.100000" stroke="black"/>
<line x1="1.064800" y1="-3.277117" x2="-1.722883" y2="-4.697513" fill="none" fill-opacity="0" stroke-width="0.100000" stroke="black"/>
<line x1="0.820083" y1="-4.822202" x2="-1.967600" y2="-6.242598" fill="none" fill-opacity="0" stroke-width="0.030000" stroke="blue"/>
<line x1="-0.329041" y1="-3.987315" x2="-0.818476" y2="-7.077485" fill="none" fill-opacity="0" stroke-width="0.030000" stroke="blue"/>
<line x1="1.064800" y1="-3.277117" x2="0.575365" y2="-6.367287" fill="none" fill-opacity="0" stroke-width="0.100000" stroke="black"/>
<line x1="0.575365" y1="-6.367287" x2="-2.212317" y2="-7.787683" fill="none" fill-opacity="0" stroke-width="0.100000" stroke="black"/>
<line x1="1.681524" y1="-7.473446" x2="-1.106159" y2="-8.893841" fill="none" fill-opacity="0" stroke-width="0.030000" stroke="blue"/>
<line x1="-0.818476" y1="-7.077485" x2="1.393841" y2="-9.289802" fill="none" fill-opacity="0" stroke-width="0.030000" stroke="blue"/>
<line x1="0.575365" y1="-6.367287" x2="2.787683" y2="-8.579605" fill="none" fill-opacity="0" stroke-width="0.100000" stroke="black"/>
<line x1="2.787683" y1="-8.579605" x2="-0.000000" y2="-10.000000" fill="none" fill-opacity="0" stroke-width="0.100000" stroke="black"/>
<line x1="2.170959" y1="-4.383276" x2="1.681524" y2="-7.473446" fill="none" fill-opacity="0" stroke-width="0.030000" stroke="blue"/>
<line x1="0.820083" y1="-4.822202" x2="3.032400" y2="-7.034520" fill="none" fill-opacity="0" stroke-width="0.030000" stroke="blue"/>
<line x1="1.064800" y1="-3.277117" x2="3.277117" y2="-5.489435" fill="none" fill-opacity="0" stroke-width="0.100000" stroke="black"/>
<line x1="3.277117" y1="-5.489435" x2="2.787683" y2="-8.579605" fill="none" fill-opacity="0" stroke-width="0.100000" stroke="black"/>
<line x1="3.591354" y1="-1.595594" x2="2.170959" y2="-4.383276" fill="none" fill-opacity="0" stroke-width="0.030000" stroke="blue"/>
<line x1="1.774998" y1="-1.883276" x2="3.987315" y2="-4.095594" fill="none" fill-opacity="0" stroke-width="0.030000" stroke="blue"/>
<line x1="2.485195" y1="-0.489435" x2="4.697513" y2="-2.701752" fill="none" fill-opacity="0" stroke-width="0.100000" stroke="black"/>
<line x1="4.697513" y1="-2.701752" x2="3.277117" y2="-5.489435" fill="none" fill-opacity="0" stroke-width="0.100000" stroke="black"/>
<line x1="3.101919" y1="1.494576" x2="3.591354" y2="-1.595594" fill="none" fill-opacity="0" stroke-width="0.030000" stroke="blue"/>
<line x1="2.240478" y1="1.055650" x2="4.452795" y2="-1.156667" fill="none" fill-opacity="0" stroke-width="0.030000" stroke="blue"/>
<line x1="1.995760" y1="2.600735" x2="4.208078" y2="0.388418" fill="none" fill-opacity="0" stroke-width="0.100000" stroke="black"/>
<line x1="4.208078" y1="0.388418" x2="4.697513" y2="-2.701752" fill="none" fill-opacity="0" stroke-width="0.100000" stroke="black"/>
<line x1="-3.757402" y1="7.053530" x2="-2.337007" y2="4.265848" fill="none" fill-opacity="0" stroke-width="0.030000" stroke="blue"/>
<line x1="-4.592290" y1="5.904406" x2="-1.502120" y2="5.414972" fill="none" fill-opacity="0" stroke-width="0.030000" stroke="blue"/>
<line x1="-5.302487" y1="7.298248" x2="-2.212317" y2="6.808813" fill="none" fill-opacity="0" stroke-width="0.100000" stroke="black"/>
<line x1="-2.212317" y1="6.808813" x2="-0.791922" y2="4.021130" fill="none" fill-opacity="0" stroke-width="0.100000" stroke="black"/>
<line x1="-0.818476" y1="6.098615" x2="0.601919" y2="3.310933" fill="none" fill-opacity="0" stroke-width="0.030000" stroke="blue"/>
<line x1="-1.502120" y1="5.414972" x2="1.285563" y2="3.994576" fill="none" fill-opacity="0" stroke-width="0.030000" stroke="blue"/>
<line x1="-2.212317" y1="6.808813" x2="0.575365" y2="5.388418" fill="none" fill-opacity="0" stroke-width="0.100000" stroke="black"/>
<line x1="0.575365" y1="5.388418" x2="1.995760" y2="2.600735" fill="none" fill-opacity="0" stroke-width="0.100000" stroke="black"/>
<line x1="1.681524" y1="4.282259" x2="3.101919" y2="1.494576" fill="none" fill-opacity="0" stroke-width="0.030000" stroke="blue"/>
<line x1="1.285563" y1="3.994576" x2="3.497880" y2="1.782259" fill="none" fill-opacity="0" stroke-width="0.030000" stroke="blue"/>
<line x1="0.575365" y1="5.388418" x2="2.787683" y2="3.176100" fill="none" fill-opacity="0" stroke-width="0.100000" stroke="black"/>
<line x1="2.787683" y1="3.176100" x2="4.208078" y2="0.388418" fill="none" fill-opacity="0" stroke-width="0.100000" stroke="black"/>
<line x1="-1.545085" y1="9.265848" x2="-3.757402" y2="7.053530" fill="none" fill-opacity="0" stroke-width="0.030000" stroke="blue"/>
<line x1="-4.196329" y1="8.404406" x2="-1.106159" y2="7.914972" fill="none" fill-opacity="0" stroke-width="0.030000" stroke="blue"/>
<line x1="-3.090170" y1="9.510565" x2="-0.000000" y2="9.021130" fill="none" fill-opacity="0" stroke-width="0.100000" stroke="black"/>
<line x1="-0.000000" y1="9.021130" x2="-2.212317" y2="6.808813" fill="none" fill-opacity="0" stroke-width="0.100000" stroke="black"/>
<line x1="1.393841" y1="8.310933" x2="-0.818476" y2="6.098615" fill="none" fill-opacity="0" stroke-width="0.030000" stroke="blue"/>
<line x1="-1.106159" y1="7.914972" x2="1.681524" y2="6.494576" fill="none" fill-opacity="0" stroke-width="0.030000" stroke="blue"/>
<line x1="-0.000000" y1="9.021130" x2="2.787683" y2="7.600735" fill="none" fill-opacity="0" stroke-width="0.100000" stroke="black"/>
<line x1="2.787683" y1="7.600735" x2="0.575365" y2="5.388418" fill="none" fill-opacity="0" stroke-width="0.100000" stroke="black"/>
<line x1="3.893841" y1="6.494576" x2="1.681524" y2="4.282259" fill="none" fill-opacity="0" stroke-width="0.030000" stroke="blue"/>
<line x1="1.681524" y1="6.494576" x2="3.893841" y2="4.282259" fill="none" fill-opacity="0" stroke-width="0.030000" stroke="blue"/>
<line x1="2.787683" y1="7.600735" x2="5.000000" y2="5.388418" fill="none" fill-opacity="0" stroke-width="0.100000" stroke="black"/>
<line x1="5.000000" y1="5.388418" x2="2.787683" y2="3.176100" fill="none" fill-opacity="0" stroke-width="0.100000" stroke="black"/>
<line x1="1.545085" y1="9.755283" x2="-1.545085" y2="9.265848" fill="none" fill-opacity="0" stroke-width="0.030000" stroke="blue"/>
<line x1="-1.545085" y1="9.755283" x2="1.545085" y2="9.265848" fill="none" fill-opacity="0" stroke-width="0.030000" stroke="blue"/>
<line x1="-0.000000" y1="10.000000" x2="3.090170" y2="9.510565" fill="none" fill-opacity="0" stroke-width="0.100000" stroke="black"/>
<line x1="3.090170" y1="9.510565" x2="-0.000000" y2="9.021130" fill="none" fill-opacity="0" stroke-width="0.100000" stroke="black"/>
<line x1="4.484011" y1="8.800368" x2="1.393841" y2="8.310933" fill="none" fill-opacity="0" stroke-width="0.030000" stroke="blue"/>
<line x1="1.545085" y1="9.265848" x2="4.332768" y2="7.845453" fill="none" fill-opacity="0" stroke-width="0.030000" stroke="blue"/>
<line x1="3.090170" y1="9.510565" x2="5.877853" y2="8.090170" fill="none" fill-opacity="0" stroke-width="0.100000" stroke="black"/>
<line x1="5.877853" y1="8.090170" x2="2.787683" y2="7.600735" fill="none" fill-opacity="0" stroke-width="0.100000" stroke="black"/>
<line x1="6.984011" y1="6.984011" x2="3.893841" y2="6.494576" fill="none" fill-opacity="0" stroke-width="0.030000" stroke="blue"/>
<line x1="4.332768" y1="7.845453" x2="6.545085" y2="5.633135" fill="none" fill-opacity="0" stroke-width="0.030000" stroke="blue"/>
<line x1="5.877853" y1="8.090170" x2="8.090170" y2="5.877853" fill="none" fill-opacity="0" stroke-width="0.100000" stroke="black"/>
<line x1="8.090170" y1="5.877853" x2="5.000000" y2="5.388418" fill="none" fill-opacity="0" stroke-width="0.100000" stroke="black"/>
<line x1="6.984011" y1="4.771694" x2="3.893841" y2="4.282259" fill="none" fill-opacity="0" stroke-width="0.030000" stroke="blue"/>
<line x1="6.545085" y1="5.633135" x2="4.332768" y2="3.420818" fill="none" fill-opacity="0" stroke-width="0.030000" stroke="blue"/>
<line x1="8.090170" y1="5.877853" x2="5.877853" y2="3.665535" fill="none" fill-opacity="0" stroke-width="0.100000" stroke="black"/>
<line x1="5.877853" y1="3.665535" x2="2.787683" y2="3.176100" fill="none" fill-opacity="0" stroke-width="0.100000" stroke="black"/>
<line x1="6.588050" y1="2.271694" x2="3.497880" y2="1.782259" fill="none" fill-opacity="0" stroke-width="0.030000" stroke="blue"/>
<line x1="4.332768" y1="3.420818" x2="5.753163" y2="0.633135" fill="none" fill-opacity="0" stroke-width="0.030000" stroke="blue"/>
<line x1="5.877853" y1="3.665535" x2="7.298248" y2="0.877853" fill="none" fill-opacity="0" stroke-width="0.100000" stroke="black"/>
<line x1="7.298248" y1="0.877853" x2="4.208078" y2="0.388418" fill="none" fill-opacity="0" stroke-width="0.100000" stroke="black"/>
<line x1="7.542965" y1="-0.667232" x2="4.452795" y2="-1.156667" fill="none" fill-opacity="0" stroke-width="0.030000" stroke="blue"/>
<line x1="5.753163" y1="0.633135" x2="6.242598" y2="-2.457035" fill="none" fill-opacity="0" stroke-width="0.030000" stroke="blue"/>
<line x1="7.298248" y1="0.877853" x2="7.787683" y2="-2.212317" fill="none" fill-opacity="0" stroke-width="0.100000" stroke="black"/>
<line x1="7.787683" y1="-2.212317" x2="4.697513" y2="-2.701752" fill="none" fill-opacity="0" stroke-width="0.100000" stroke="black"/>
<line x1="7.077485" y1="-3.606159" x2="3.987315" y2="-4.095594" fill="none" fill-opacity="0" stroke-width="0.030000" stroke="blue"/>
<line x1="6.242598" y1="-2.457035" x2="4.822202" y2="-5.244717" fill="none" fill-opacity="0" stroke-width="0.030000" stroke="blue"/>
<line x1="7.787683" y1="-2.212317" x2="6.367287" y2="-5.000000" fill="none" fill-opacity="0" stroke-width="0.100000" stroke="black"/>
<line x1="6.367287" y1="-5.000000" x2="3.277117" y2="-5.489435" fill="none" fill-opacity="0" stroke-width="0.100000" stroke="black"/>
<line x1="6.122570" y1="-6.545085" x2="3.032400" y2="-7.034520" fill="none" fill-opacity="0" stroke-width="0.030000" stroke="blue"/>
<line x1="4.822202" y1="-5.244717" x2="4.332768" y2="-8.334887" fill="none" fill-opacity="0" stroke-width="0.030000" stroke="blue"/>
<line x1="6.367287" y1="-5.000000" x2="5.877853" y2="-8.090170" fill="none" fill-opacity="0" stroke-width="0.100000" stroke="black"/>
<line x1="5.877853" y1="-8.090170" x2="2.787683" y2="-8.579605" fill="none" fill-opacity="0" stroke-width="0.100000" stroke="black"/>
<line x1="4.484011" y1="-8.800368" x2="1.393841" y2="-9.289802" fill="none" fill-opacity="0" stroke-width="0.030000" stroke="blue"/>
<line x1="4.332768" y1="-8.334887" x2="1.545085" y2="-9.755283" fill="none" fill-opacity="0" stroke-width="0.030000" stroke="blue"/>
<line x1="5.877853" y1="-8.090170" x2="3.090170" y2="-9.510565" fill="none" fill-opacity="0" stroke-width="0.100000" stroke="black"/>
<line x1="3.090170" y1="-9.510565" x2="-0.000000" y2="-10.000000" fill="none" fill-opacity="0" stroke-width="0.100000" stroke="black"/>
<line x1="8.800368" y1="4.484011" x2="6.588050" y2="2.271694" fill="none" fill-opacity="0" stroke-width="0.030000" stroke="blue"/>
<line x1="6.984011" y1="4.771694" x2="8.404406" y2="1.984011" fill="none" fill-opacity="0" stroke-width="0.030000" stroke="blue"/>
<line x1="8.090170" y1="5.877853" x2="9.510565" y2="3.090170" fill="none" fill-opacity="0" stroke-width="0.100000" stroke="black"/>
<line x1="9.510565" y1="3.090170" x2="7.298248" y2="0.877853" fill="none" fill-opacity="0" stroke-width="0.100000" stroke="black"/>
<line x1="9.755283" y1="1.545085" x2="7.542965" y2="-0.667232" fill="none" fill-opacity="0" stroke-width="0.030000" stroke="blue"/>
<line x1="8.404406" y1="1.984011" x2="8.893841" y2="-1.106159" fill="none" fill-opacity="0" stroke-width="0.030000" stroke="blue"/>
<line x1="9.510565" y1="3.090170" x2="10.000000" y2="0.000000" fill="none" fill-opacity="0" stroke-width="0.100000" stroke="black"/>
<line x1="10.000000" y1="0.000000" x2="7.787683" y2="-2.212317" fill="none" fill-opacity="0" stroke-width="0.100000" stroke="black"/>
<line x1="9.289802" y1="-1.393841" x2="7.077485" y2="-3.606159" fill="none" fill-opacity="0" stroke-width="0.030000" stroke="blue"/>
<line x1="8.893841" y1="-1.106159" x2="7.473446" y2="-3.893841" fill="none" fill-opacity="0" stroke-width="0.030000" stroke="blue"/>
<line x1="10.000000" y1="0.000000" x2="8.579605" y2="-2.787683" fill="none" fill-opacity="0" stroke-width="0.100000" stroke="black"/>
<line x1="8.579605" y1="-2.787683" x2="6.367287" y2="-5.000000" fill="none" fill-opacity="0" stroke-width="0.100000" stroke="black"/>
<line x1="8.334887" y1="-4.332768" x2="6.122570" y2="-6.545085" fill="none" fill-opacity="0" stroke-width="0.030000" stroke="blue"/>
<line x1="7.473446" y1="-3.893841" x2="6.984011" y2="-6.984011" fill="none" fill-opacity="0" stroke-width="0.030000" stroke="blue"/>
<line x1="8.579605" y1="-2.787683" x2="8.090170" y2="-5.877853" fill="none" fill-opacity="0" stroke-width="0.100000" stroke="black"/>
<line x1="8.090170" y1="-5.877853" x2="5.877853" y2="-8.090170" fill="none" fill-opacity="0" stroke-width="0.100000" stroke="black"/>
<line x1="9.755283" y1="-1.545085" x2="8.334887" y2="-4.332768" fill="none" fill-opacity="0" stroke-width="0.030000" stroke="blue"/>
<line x1="9.289802" y1="-1.393841" x2="8.800368" y2="-4.484011" fill="none" fill-opacity="0" stroke-width="0.030000" stroke="blue"/>
<line x1="10.000000" y1="0.000000" x2="9.510565" y2="-3.090170" fill="none" fill-opacity="0" stroke-width="0.100000" stroke="black"/>
<line x1="9.510565" y1="-3.090170" x2="8.090170" y2="-5.877853" fill="none" fill-opacity="0" stroke-width="0.100000" stroke="black"/>

</svg>
